<svg width="512" height="512" xmlns="http://www.w3.org/2000/svg">

 <g>
  <title>background</title>
  <rect fill="none" id="canvas_background" height="514" width="514" y="-1" x="-1"/>
 </g>
 <g>
  <title>Layer 1</title>
  <path stroke="null" id="svg_1" fill-rule="evenodd" clip-rule="evenodd" fill="#d80097" d="m219.935218,394.331428l57.431104,0l0,-138.348391l38.312951,0l5.075465,-47.670099l-43.388416,0l0.059611,-23.868954c0,-12.426096 1.192223,-19.096859 19.109638,-19.096859l23.946659,0l0,-47.678575l-38.321466,0c-46.028339,0 -62.225546,23.131526 -62.225546,62.02029l0,28.624097l-28.690005,0l0,47.678575l28.690005,0l0,138.339915zm36.064758,115.954294c-141.091124,0 -255.476443,-113.852199 -255.476443,-254.285733c0,-140.44201 114.385319,-254.285733 255.476443,-254.285733s255.476443,113.843723 255.476443,254.285733c0,140.433534 -114.385319,254.285733 -255.476443,254.285733z"/>
 </g>
</svg>