<svg width="512" height="512" xmlns="http://www.w3.org/2000/svg">

 <g>
  <title>background</title>
  <rect fill="none" id="canvas_background" height="514" width="514" y="-1" x="-1"/>
 </g>
 <g>
  <title>Layer 1</title>
  <g stroke="null" id="svg_5">
   <circle stroke="null" fill="#d80097" id="svg_2" r="45.454212" cy="255.999995" cx="256.000005"/>
   <path stroke="null" fill="#d80097" id="svg_3" d="m312.502045,143.512926l-114.040799,0c-16.587753,0 -31.102036,5.183737 -40.432647,14.514463c-9.330611,9.330726 -14.514283,23.845189 -14.514283,40.433146l0,114.042208c0,16.587957 5.183673,31.10242 15.551018,41.469894c10.367345,9.330726 23.844894,14.514463 40.432647,14.514463l113.004064,0c16.587753,0 31.102036,-5.183737 40.432647,-14.514463c10.367345,-9.330726 15.551018,-23.845189 15.551018,-40.433146l0,-114.042208c0,-16.587957 -5.183673,-30.065673 -14.514283,-40.433146c-10.367345,-10.367473 -23.844894,-15.55121 -41.469381,-15.55121zm-57.020399,182.467532c-39.395912,0 -70.497948,-32.139168 -70.497948,-70.498819c0,-39.396399 32.138771,-70.498819 70.497948,-70.498819s71.534683,31.10242 71.534683,70.498819c0,39.396399 -32.138771,70.498819 -71.534683,70.498819zm73.608152,-127.519923c-9.330611,0 -16.587753,-7.257231 -16.587753,-16.587957s7.257142,-16.587957 16.587753,-16.587957s16.587753,7.257231 16.587753,16.587957s-7.257142,16.587957 -16.587753,16.587957z"/>
   <path stroke="null" fill="#d80097" id="svg_4" d="m255.996519,0.960159c-140.995897,0 -255.036695,114.042208 -255.036695,255.039847c0,140.997639 114.040799,255.039847 255.036695,255.039847c140.995897,0 255.036695,-114.042208 255.036695,-255.039847c1.036735,-140.997639 -114.040799,-255.039847 -255.036695,-255.039847zm135.812224,315.171192c0,23.845189 -8.293876,44.580136 -22.80816,59.094599c-14.514283,14.514463 -35.248974,21.771694 -58.057134,21.771694l-113.004064,0c-22.80816,0 -43.54285,-7.257231 -58.057134,-21.771694c-15.551018,-14.514463 -22.80816,-35.24941 -22.80816,-59.094599l0,-114.042208c0,-47.690378 32.138771,-80.866293 80.865294,-80.866293l114.040799,0c23.844894,0 43.54285,8.293979 58.057134,22.808442c14.514283,14.514463 21.771425,34.212662 21.771425,58.057851l0,114.042208z"/>
  </g>
 </g>
</svg>