<svg width="512" height="512" xmlns="http://www.w3.org/2000/svg">

 <g>
  <title>background</title>
  <rect fill="none" id="canvas_background" height="402" width="582" y="-1" x="-1"/>
 </g>
 <g>
  <title>Layer 1</title>
  <path fill="#d80097" id="svg_1" d="m340.537387,113.950456l-154.633,23.79l0.04,173.344c0,0 -26.939,1.538 -32.179,3.164c-22.878,7.107 -36.696,28.092 -30.862,46.871c5.833,18.777 29.11,28.24 51.988,21.134c18.829,-5.849 37.016,-21.768 37.982,-37.455c0.017,0.009 0.025,0.011 0.025,0.011l0,-0.504c0.04,-0.903 0.045,-1.806 0,-2.709l0,-146.502l108.186,-14.349l-0.002,116.563l-17.129,-0.769c-1.626,-0.081 -3.27,-0.087 -4.928,-0.011l-0.516,-0.002l0.035,0.027c-4.208,0.229 -8.484,0.968 -12.704,2.28c-22.879,7.106 -36.695,28.091 -30.863,46.868c5.834,18.779 29.111,28.24 51.989,21.134c19.034,-5.912 32.87,-21.442 33.565,-37.309l0.006,-215.576z"/>
  <path stroke="null" fill="#d80097" id="svg_2" d="m255.999498,21.228234c31.643454,0 62.3305,6.204218 91.206215,18.441142c27.901881,11.823035 52.964267,28.75446 74.491123,50.321846c21.526856,21.567386 38.425438,46.676958 50.227281,74.630344c12.213928,28.93008 18.406487,59.673875 18.406487,91.377932s-6.192559,62.447852 -18.406487,91.377932c-11.801843,27.954413 -28.700425,53.063985 -50.227281,74.631371s-46.589242,38.497784 -74.491123,50.321846c-28.875715,12.236924 -59.561736,18.441142 -91.206215,18.441142s-62.329475,-6.204218 -91.206215,-18.441142c-27.900856,-11.824062 -52.963242,-28.75446 -74.490098,-50.321846c-21.526856,-21.567386 -38.426464,-46.676958 -50.227281,-74.631371c-12.213928,-28.93008 -18.406487,-59.674902 -18.406487,-91.377932s6.192559,-62.446825 18.406487,-91.377932c11.800818,-27.953386 28.700425,-53.062958 50.227281,-74.630344c21.526856,-21.567386 46.589242,-38.498811 74.490098,-50.321846c28.87674,-12.236924 59.562761,-18.441142 91.206215,-18.441142m0,-20.540367c-140.739511,0 -254.831849,114.307144 -254.831849,255.311631c0,141.005514 114.092338,255.312658 254.831849,255.312658c140.740536,0 254.832874,-114.307144 254.832874,-255.312658c0,-141.004487 -114.092338,-255.311631 -254.832874,-255.311631l0,0z"/>
 </g>
</svg>