<svg width="512" height="512" xmlns="http://www.w3.org/2000/svg">

 <g>
  <title>background</title>
  <rect fill="none" id="canvas_background" height="514" width="514" y="-1" x="-1"/>
 </g>
 <g>
  <title>Layer 1</title>
  <path stroke="null" fill="#d80097" id="svg_1" d="m256.478312,0.081332c-141.072485,0 -255.437798,114.359533 -255.437798,255.435131s114.365313,255.442396 255.437798,255.442396c141.076636,0 255.440911,-114.366798 255.440911,-255.442396s-114.365313,-255.435131 -255.440911,-255.435131zm103.6291,375.97396c-4.129472,0 -6.952333,-1.432218 -10.811973,-3.783963c-37.024107,-22.396576 -83.181,-34.166714 -132.17217,-34.166714c-27.331938,0 -54.840304,3.50167 -80.569853,8.855884c-4.182401,0.909147 -9.447244,2.528177 -12.590791,2.528177c-9.700472,0 -16.169183,-7.712185 -16.169183,-16.053301c0,-10.739563 6.191614,-16.076134 13.895326,-17.549866c31.549624,-7.189114 62.97056,-11.294807 95.606778,-11.294807c55.893688,0 105.71096,12.824583 148.579013,38.515261c6.379459,3.726882 10.118712,7.52745 10.118712,16.978016c0.001038,9.20875 -7.484733,15.971312 -15.885859,15.971312zm27.834241,-67.610053c-5.542978,0 -9.033156,-2.237582 -12.796279,-4.427423c-41.552101,-24.659066 -99.141581,-41.0424 -162.205544,-41.0424c-32.346668,0 -60.261858,4.52498 -83.37092,10.68352c-4.979444,1.367872 -7.773246,2.841605 -12.429929,2.841605c-10.985289,0 -19.953062,-8.952403 -19.953062,-20.026151c0,-10.86099 5.264844,-18.339662 15.887934,-21.334866c28.716385,-7.885504 58.035742,-13.968282 100.714911,-13.968282c66.86341,0 131.544291,16.653172 182.395228,47.084702c8.525663,4.894451 11.665059,11.093466 11.665059,20.190129c0.002076,11.063369 -8.805874,19.999167 -19.907398,19.999167zm31.690767,-78.629833c-5.200499,0 -8.288003,-1.264088 -13.162628,-3.933412c-46.233691,-27.721731 -117.983142,-42.990425 -187.374672,-42.990425c-34.637129,0 -69.818073,3.522427 -102.043316,12.265187c-3.711232,0.934056 -8.400088,2.793864 -13.098283,2.793864c-13.625494,0 -24.078383,-10.779001 -24.078383,-24.404796c0,-13.884217 8.602462,-21.676316 17.883656,-24.418287c36.411795,-10.727109 77.054769,-15.726382 121.240848,-15.726382c75.006119,0 153.920655,15.428522 211.566177,49.285959c7.768057,4.400439 13.162628,11.037423 13.162628,23.197788c-0.001038,13.923655 -11.194928,23.930503 -24.096026,23.930503z"/>
 </g>
</svg>