<svg width="512" height="512" xmlns="http://www.w3.org/2000/svg">

 <g>
  <title>background</title>
  <rect fill="none" id="canvas_background" height="514" width="514" y="-1" x="-1"/>
 </g>
 <g>
  <title>Layer 1</title>
  <path stroke="null" fill="#d80097" id="svg_1" d="m256.010365,0.706623c-141.030326,0 -255.35822,114.324246 -255.35822,255.30376c0,141.000249 114.327893,255.283025 255.35822,255.283025c141.030326,0 255.33748,-114.282776 255.33748,-255.283025c0,-140.979514 -114.317523,-255.30376 -255.33748,-255.30376zm128.627954,203.828302c0.134808,2.757799 0.186658,5.525966 0.186658,8.325235c0,85.025224 -64.728772,183.0515 -183.090547,183.0515c-36.336049,0 -70.172957,-10.647592 -98.648639,-28.894683c5.03976,0.590957 10.15211,0.891619 15.347418,0.891619c30.155602,0 57.905393,-10.284724 79.920642,-27.536519c-28.154216,-0.528751 -51.911604,-19.13871 -60.103807,-44.695006c3.919813,0.767207 7.953696,1.150811 12.101646,1.150811c5.86935,0 11.552043,-0.767207 16.954749,-2.249783c-29.450451,-5.909569 -51.631617,-31.932409 -51.631617,-63.076876c0,-0.279927 0,-0.549486 0.01037,-0.829413c8.669217,4.820964 18.593189,7.713543 29.149724,8.055676c-17.276215,-11.559947 -28.63123,-31.227408 -28.63123,-53.559359c0,-11.788036 3.173182,-22.850335 8.710697,-32.347116c31.742193,38.920216 79.163641,64.538717 132.651466,67.213575c-1.099207,-4.696552 -1.66955,-9.621193 -1.66955,-14.659879c0,-35.519622 28.807518,-64.331364 64.355456,-64.331364c18.51023,0 35.226472,7.81722 46.965173,20.310257c14.663006,-2.871843 28.434203,-8.242294 40.867685,-15.613704c-4.821993,15.033115 -15.015582,27.640196 -28.309764,35.592195c13.034935,-1.55515 25.437308,-5.01795 36.968611,-10.129209c-8.606998,12.928479 -19.526478,24.260337 -32.105139,33.332044z"/>
 </g>
</svg>